<?xml version="1.0" encoding="UTF-8"?>
<svg id="Layer_1" xmlns="http://www.w3.org/2000/svg" version="1.1" viewBox="0 0 445 67">
  <!-- Generator: Adobe Illustrator 29.8.4, SVG Export Plug-In . SVG Version: 2.1.1 Build 6)  -->
  <defs>
    <style>
      .st0 {
        fill: #5bf4e7;
      }
    </style>
  </defs>
  <path class="st0" d="M10.55,61.75c-1.11,0-2.01-.9-2.01-2.01v-3.99c0-1.08.9-1.98,2.01-1.98h20.94c.54,0,1.01-.47,1.01-1.01v-6.97H10.55c-1.11,0-2.01-.9-2.01-2.01v-11.96c0-1.11.9-2.01,2.01-2.01h4.96c.57,0,1.01-.43,1.01-1.01v-4.99c0-1.08.9-1.98,2.01-1.98h19.94c1.11,0,2.01.9,2.01,2.01v3.99c0,1.08-.9,1.98-2.01,1.98h-20.94c-.54,0-1.01.47-1.01,1.01v6c0,.54.47.97,1.01.97h20.94c1.11,0,2.01.9,2.01,2.01v11.96c0,1.11-.9,2.01-2.01,2.01h-4.99c-.54,0-.97.43-.97,1.01v4.96c0,1.11-.9,2.01-2.01,2.01H10.55Z"/>
  <path class="st0" d="M47.15,13.87c-1.11,0-2.01-.9-2.01-2.01v-3.99c0-1.11.9-2.01,2.01-2.01h3.99c1.08,0,1.98.9,1.98,2.01v3.99c0,1.11-.9,2.01-1.98,2.01h-3.99ZM47.15,61.75c-1.11,0-2.01-.9-2.01-2.01V23.82c0-1.08.9-1.98,2.01-1.98h3.99c1.08,0,1.98.9,1.98,2.01v35.88c0,1.11-.9,2.01-1.98,2.01h-3.99Z"/>
  <path class="st0" d="M71.27,61.75c-1.11,0-2.01-.9-2.01-2.01v-4.96c0-.57-.43-1.01-.97-1.01h-4.99c-1.11,0-2.01-.9-2.01-2.01v-20.94c0-.54-.43-1.01-1.01-1.01h-4.96c-1.11,0-2.01-.9-2.01-1.98v-3.99c0-1.11.9-2.01,2.01-2.01h4.96c.57,0,1.01-.47,1.01-1.01V7.87c0-1.11.9-2.01,2.01-2.01h3.99c1.11,0,1.98.9,1.98,2.01v12.97c0,.54.47,1.01,1.01,1.01h12.97c1.11,0,2.01.9,2.01,1.98v3.99c0,1.11-.9,2.01-2.01,2.01h-12.97c-.54,0-1.01.47-1.01,1.01v21.95c0,.54.47,1.01,1.01,1.01h12.97c1.11,0,2.01.9,2.01,1.98v3.99c0,1.11-.9,2.01-2.01,2.01h-11.96Z"/>
  <path class="st0" d="M98.83,61.75c-1.11,0-2.01-.9-2.01-2.01v-4.96c0-.57-.43-1.01-1.01-1.01h-4.96c-1.11,0-2.01-.9-2.01-2.01v-19.94c0-1.11.9-2.01,2.01-2.01h4.96c.57,0,1.01-.43,1.01-1.01v-4.96c0-1.11.9-2.01,2.01-2.01h11.96c1.11,0,2.01.9,2.01,1.98v4.99c0,.57.43,1.01.97,1.01h4.99c1.11,0,2.01.9,2.01,2.01v11.96c0,1.11-.9,2.01-2.01,2.01h-20.94c-.54,0-1.01.43-1.01.97v6c0,.54.47,1.01,1.01,1.01h20.94c1.11,0,2.01.9,2.01,1.98v3.99c0,1.11-.9,2.01-2.01,2.01h-19.94ZM112.81,37.79v-6.97c0-.54-.47-1.01-1.01-1.01h-13.97c-.54,0-1.01.47-1.01,1.01v6c0,.54.47.97,1.01.97h14.98Z"/>
  <path class="st0" d="M152.11,61.75c-1.11,0-2.01-.9-2.01-2.01V23.86c0-1.11.9-2.01,2.01-2.01h19.94c1.11,0,2.01.9,2.01,2.01v4.96c0,.57.43,1.01.97,1.01h6c.54,0,1.01-.43,1.01-1.01v-4.96c0-1.11.9-2.01,1.98-2.01h12c1.08,0,1.98.9,1.98,2.01v4.96c0,.57.47,1.01,1.01,1.01h4.99c1.11,0,2.01.9,2.01,2.01v27.91c0,1.11-.9,2.01-2.01,2.01h-3.99c-1.11,0-2.01-.9-2.01-2.01v-28.92c0-.54-.43-1.01-.97-1.01h-13.97c-.57,0-1.01.47-1.01,1.01v28.92c0,1.11-.9,2.01-2.01,2.01h-3.99c-1.08,0-1.98-.9-1.98-2.01v-28.92c0-.54-.47-1.01-1.01-1.01h-13.97c-.54,0-1.01.47-1.01,1.01v28.92c0,1.11-.9,2.01-1.98,2.01h-3.99Z"/>
  <path class="st0" d="M220.79,61.75c-1.11,0-2.01-.9-2.01-2.01v-4.96c0-.57-.43-1.01-1.01-1.01h-4.96c-1.11,0-2.01-.9-2.01-2.01v-19.94c0-1.11.9-2.01,2.01-2.01h4.96c.57,0,1.01-.43,1.01-1.01v-4.96c0-1.11.9-2.01,2.01-2.01h11.96c1.11,0,2.01.9,2.01,1.98v4.99c0,.57.43,1.01.97,1.01h4.99c1.11,0,2.01.9,2.01,2.01v11.96c0,1.11-.9,2.01-2.01,2.01h-20.94c-.54,0-1.01.43-1.01.97v6c0,.54.47,1.01,1.01,1.01h20.94c1.11,0,2.01.9,2.01,1.98v3.99c0,1.11-.9,2.01-2.01,2.01h-19.94ZM234.76,37.79v-6.97c0-.54-.47-1.01-1.01-1.01h-13.97c-.54,0-1.01.47-1.01,1.01v6c0,.54.47.97,1.01.97h14.98Z"/>
  <path class="st0" d="M257.17,61.75c-1.11,0-2.01-.9-2.01-2.01v-4.96c0-.57-.43-1.01-1.01-1.01h-4.96c-1.11,0-2.01-.9-2.01-2.01v-19.94c0-1.11.9-2.01,2.01-2.01h4.96c.58,0,1.01-.43,1.01-1.01v-4.96c0-1.11.9-2.01,2.01-2.01h19.94c1.11,0,2.01.9,2.01,1.98v4.02c0,1.08-.9,1.98-2.01,1.98h-20.94c-.54,0-1.01.47-1.01,1.01v21.95c0,.54.47,1.01,1.01,1.01h20.94c1.11,0,2.01.9,2.01,1.98v3.99c0,1.11-.9,2.01-2.01,2.01h-19.94Z"/>
  <path class="st0" d="M285.58,61.75c-1.11,0-2.01-.9-2.01-2.01V7.87c0-1.11.9-2.01,2.01-2.01h3.99c1.08,0,1.98.9,1.98,2.01v12.97c0,.54.47,1.01,1.01,1.01h12.97c1.11,0,2.01.9,2.01,2.01v4.96c0,.57.43,1.01.97,1.01h4.99c1.11,0,2.01.9,2.01,2.01v27.91c0,1.11-.9,2.01-2.01,2.01h-3.99c-1.08,0-1.98-.9-1.98-2.01v-28.92c0-.54-.47-1.01-1.01-1.01h-13.97c-.54,0-1.01.47-1.01,1.01v28.92c0,1.11-.9,2.01-1.98,2.01h-3.99Z"/>
  <path class="st0" d="M330.16,61.75c-1.11,0-2.01-.9-2.01-2.01v-4.96c0-.57-.43-1.01-1-1.01h-4.96c-1.11,0-2.01-.9-2.01-2.01v-11.96c0-1.11.9-2.01,2.01-2.01h20.94c.54,0,1.01-.43,1.01-.97v-6c0-.54-.47-1.01-1.01-1.01h-20.94c-1.11,0-2.01-.9-2.01-1.98v-3.99c0-1.11.9-2.01,2.01-2.01h19.93c1.11,0,2.01.9,2.01,1.98v4.99c0,.57.43,1.01.97,1.01h4.99c1.11,0,2.01.9,2.01,2.01v27.91c0,1.11-.9,2.01-2.01,2.01h-19.94ZM343.12,53.78c.54,0,1.01-.47,1.01-1.01v-6c0-.54-.47-.97-1.01-.97h-14.98v6.97c0,.54.47,1.01,1.01,1.01h13.97Z"/>
  <path class="st0" d="M359.1,61.75c-1.11,0-2.01-.9-2.01-2.01V23.86c0-1.11.9-2.01,2.01-2.01h19.93c1.11,0,2.01.9,2.01,2.01v4.96c0,.57.43,1.01.97,1.01h4.99c1.11,0,2.01.9,2.01,2.01v27.91c0,1.11-.9,2.01-2.01,2.01h-3.99c-1.08,0-1.98-.9-1.98-2.01v-28.92c0-.54-.47-1.01-1.01-1.01h-13.97c-.54,0-1.01.47-1.01,1.01v28.92c0,1.11-.9,2.01-1.98,2.01h-3.99Z"/>
  <path class="st0" d="M396.02,13.87c-1.11,0-2.01-.9-2.01-2.01v-3.99c0-1.11.9-2.01,2.01-2.01h3.99c1.08,0,1.98.9,1.98,2.01v3.99c0,1.11-.9,2.01-1.98,2.01h-3.99ZM396.02,61.75c-1.11,0-2.01-.9-2.01-2.01V23.82c0-1.08.9-1.98,2.01-1.98h3.99c1.08,0,1.98.9,1.98,2.01v35.88c0,1.11-.9,2.01-1.98,2.01h-3.99Z"/>
  <path class="st0" d="M416.6,61.75c-1.11,0-2.01-.9-2.01-2.01v-4.96c0-.57-.43-1.01-1-1.01h-4.96c-1.11,0-2.01-.9-2.01-2.01v-19.94c0-1.11.9-2.01,2.01-2.01h4.96c.57,0,1-.43,1-1.01v-4.96c0-1.11.9-2.01,2.01-2.01h19.94c1.11,0,2.01.9,2.01,1.98v4.02c0,1.08-.9,1.98-2.01,1.98h-20.94c-.54,0-1.01.47-1.01,1.01v21.95c0,.54.47,1.01,1.01,1.01h20.94c1.11,0,2.01.9,2.01,1.98v3.99c0,1.11-.9,2.01-2.01,2.01h-19.94Z"/>
</svg>